ModelForces
version=1
nRows=59
nColumns=3
inDegrees=no

This file contains the forces exerted on a model during a simulation.

A force is a generalized force, meaning that it can be either a force (N) or a torque (Nm).

Units are S.I. units (second, meters, Newtons, ...)
Angles are in degrees.

endheader
time	Liu	Thelen
      0.00000000	      6.68640903	      5.70802630
      0.01000000	      6.31662521	      7.36079287
      0.02308587	      8.21710992	     11.82445036
      0.03977068	     14.58104166	     19.13806779
      0.05770372	     26.01292648	     27.30643493
      0.07563676	     34.85273794	     35.45765656
      0.09356980	     47.48808584	     44.58862471
      0.11150284	     55.94257722	     53.82759571
      0.12943589	     67.18730935	     64.02573165
      0.14736893	     75.48788056	     74.05884601
      0.16530197	     86.79664598	     84.56978740
      0.18323501	     94.64873610	     94.45507823
      0.20116805	    106.53631464	    104.87254459
      0.21910110	    113.77444053	    114.30312561
      0.23703414	    126.38624314	    124.75469843
      0.25221627	    132.11358623	    132.51574557
      0.26739840	    141.34861792	    140.95701161
      0.28641804	    150.56911413	    150.96456513
      0.30416956	    161.59466552	    160.84097020
      0.32192107	    168.63431952	    169.71426136
      0.33730094	    179.09239847	    178.47557720
      0.35268081	    185.64364324	    186.19485926
      0.36806068	    194.79482375	    194.58484999
      0.38731842	    203.10514315	    204.17982549
      0.40231778	    213.15338316	    212.66620830
      0.41731715	    219.35824195	    220.00866664
      0.43231652	    228.32574992	    228.15584274
      0.45093670	    235.97029194	    237.12814442
      0.46530981	    245.79091368	    245.36726761
      0.47968292	    251.51897864	    252.21544847
      0.49405603	    260.08420109	    259.97434230
      0.51231560	    267.63649265	    268.55416549
      0.52679179	    277.40033870	    276.95718052
      0.54126799	    282.89056237	    283.51874517
      0.55574418	    291.71001924	    291.51906330
      0.57022038	    297.66609259	    298.27135192
      0.58469657	    306.31107626	    306.12376709
      0.60249247	    313.45280159	    313.73590610
      0.61650492	    322.74425996	    322.46334601
      0.63051738	    328.17136534	    328.39329978
      0.64452983	    336.09986384	    336.11470674
      0.66289316	    343.89467095	    343.76141647
      0.67764743	    353.15652978	    352.88193541
      0.69240170	    358.99395174	    359.34919586
      0.71624771	    374.47163831	    372.89656506
      0.73343948	    378.56380568	    379.50569675
      0.75063126	    388.21860122	    388.37431320
      0.77842689	    400.33570771	    400.48107154
      0.80379922	    420.16210478	    417.76342091
      0.81797979	    420.54076144	    421.72038132
      0.83216035	    427.54671441	    427.98877878
      0.85704509	    440.35420715	    439.65330995
      0.87539671	    448.09993407	    449.09266124
      0.89374833	    457.84942970	    457.31331467
      0.91697859	    467.95608745	    469.15262798
      0.94578634	    485.52629895	    480.08498289
      0.96530563	    489.51422306	    493.38229181
      0.98482493	    501.76419654	    499.93067910
      1.00000000	    508.44954253	    507.90120625
